<svg width="41" height="43" viewBox="0 0 41 43" fill="none" xmlns="http://www.w3.org/2000/svg">
<path d="M38.1833 0.795262L27.9634 20.2986C28.022 20.3148 28.0805 20.332 28.1386 20.3504C28.5702 20.4872 28.9753 20.6539 29.3526 20.8494C29.8087 21.0857 30.2233 21.3643 30.5937 21.6829L40.8339 2.14085C41.2114 1.42044 40.9241 0.535186 40.1921 0.163622C39.4602 -0.208 38.5609 0.0747967 38.1833 0.795262Z" fill="#333333"/>
<path d="M4.41812 36.9661C6.04289 38.4084 8.0379 39.6652 10.3477 40.7013C14.2484 42.4513 17.6811 42.968 17.8253 42.9892C17.8293 42.9898 17.8334 42.9903 17.8373 42.9909C17.8828 42.997 17.9286 43 17.9744 43C17.9855 43 17.9966 42.9998 18.0077 42.9995C22.1112 42.8676 25.3094 41.5225 27.5134 39.0015C30.4121 35.6858 31.4598 30.7004 31.2561 26.4144C31.1977 25.1873 30.7537 23.9347 29.8822 23.0411C29.8172 22.9745 29.7505 22.9095 29.6808 22.847C29.375 22.5731 29.0329 22.3441 28.669 22.1544C28.3535 21.9899 28.0216 21.855 27.6818 21.7473C27.5407 21.7026 27.3996 21.6688 27.2586 21.6439C27.0629 21.6093 26.8676 21.5925 26.6734 21.5925C25.2346 21.5925 23.8552 22.4826 22.8016 23.3917C21.7137 24.3306 20.6093 25.3538 19.3801 26.1553C18.033 27.0337 16.5541 27.476 15.0139 27.9078C13.0246 28.4654 10.9793 28.8215 8.92526 29.0484C7.099 29.2501 5.24822 29.3674 3.40275 29.3674C2.67029 29.3674 1.93897 29.3489 1.20996 29.3099C1.16767 29.3077 1.12539 29.3056 1.08316 29.3027C1.05965 29.3011 1.03609 29.3003 1.01271 29.3003C0.69921 29.3003 0.401692 29.4434 0.209272 29.6904C0.00247729 29.9558 -0.0554396 30.3055 0.0551453 30.6217C0.88662 32.9997 2.35452 35.1343 4.41812 36.9661ZM2.99859 31.3543C2.99918 31.3543 2.99978 31.3543 3.00044 31.3543C3.10291 31.3549 3.2089 31.3553 3.3177 31.3553C4.80946 31.3553 6.88815 31.2903 9.22009 31.0291C14.1541 30.4764 18.1762 29.2946 21.2212 27.5083C21.3077 27.4576 21.4048 27.4322 21.5022 27.4322C21.5941 27.4322 21.6861 27.4548 21.7693 27.4998C23.5392 28.4572 26.2894 29.8759 28.2505 30.5647C28.4932 30.65 28.6434 30.8893 28.614 31.1413C28.3798 33.1556 27.7155 35.719 25.9699 37.7101C24.1821 39.7494 21.542 40.8558 18.1204 41.0001C18.1097 41.0006 18.099 41.0008 18.0884 41.0008C18.044 41.0008 17.9998 40.9969 17.9559 40.9893C17.6111 40.9294 16.7605 40.7679 15.619 40.4587C15.9444 40.3172 16.281 40.1477 16.6212 39.9586C16.9257 39.7892 17.2329 39.6047 17.537 39.4116C18.4777 38.8143 19.3886 38.1362 20.0973 37.5783C20.2613 37.4493 20.1075 37.1972 19.9138 37.2771C18.3645 37.9169 16.3851 38.3448 14.614 38.626C14.0573 38.7145 13.5216 38.7882 13.0259 38.8498C12.4461 38.9218 11.922 38.9766 11.4846 39.0177C11.3706 38.9682 11.2563 38.918 11.1416 38.8662C10.1559 38.4218 9.23632 37.9351 8.38599 37.4104C8.75711 37.3766 9.14709 37.316 9.5426 37.2368C9.90191 37.1648 10.2653 37.0777 10.623 36.982C11.6763 36.7005 12.6779 36.3449 13.363 36.0831C13.4934 36.0333 13.447 35.8418 13.3077 35.855C12.0606 35.9731 10.331 35.9839 8.85386 35.9626C8.37001 35.9556 7.91341 35.9451 7.50966 35.9339C6.97869 35.919 6.53957 35.9029 6.25064 35.8911C6.08119 35.7516 5.91513 35.6104 5.75403 35.4668C5.54556 35.2811 5.34479 35.0918 5.15046 34.8994C5.4503 34.8694 5.7616 34.8225 6.07773 34.7629C6.37334 34.7072 6.67276 34.6406 6.97058 34.5666C8.14675 34.2745 9.29435 33.8694 10.0535 33.5793C10.1839 33.5294 10.1375 33.338 9.99818 33.3511C8.82744 33.4621 7.23135 33.4784 5.8182 33.4623C5.46963 33.4583 5.13233 33.4524 4.81519 33.4455C4.46226 33.4377 4.13438 33.4287 3.84426 33.4196C3.43365 32.8824 3.07082 32.3248 2.75756 31.7477C2.66087 31.5698 2.79382 31.3543 2.99859 31.3543Z" fill="#333333"/>
<path d="M35.7119 38.7391C37.0339 38.7391 38.1056 37.6843 38.1056 36.383C38.1056 35.0818 37.0339 34.027 35.7119 34.027C34.3898 34.027 33.3181 35.0818 33.3181 36.383C33.3181 37.6843 34.3898 38.7391 35.7119 38.7391Z" fill="#333333"/>
<path d="M30.5489 42.9689C31.2168 42.9689 31.7583 42.4359 31.7583 41.7786C31.7583 41.1212 31.2168 40.5883 30.5489 40.5883C29.881 40.5883 29.3396 41.1212 29.3396 41.7786C29.3396 42.4359 29.881 42.9689 30.5489 42.9689Z" fill="#333333"/>
<path d="M37.107 42.6943C37.7749 42.6943 38.3164 42.1614 38.3164 41.504C38.3164 40.8466 37.7749 40.3137 37.107 40.3137C36.4391 40.3137 35.8977 40.8466 35.8977 41.504C35.8977 42.1614 36.4391 42.6943 37.107 42.6943Z" fill="#333333"/>
</svg>
