<?xml version="1.0" standalone="no"?>
<!DOCTYPE svg PUBLIC "-//W3C//DTD SVG 20010904//EN"
 "http://www.w3.org/TR/2001/REC-SVG-20010904/DTD/svg10.dtd">
<svg version="1.0" xmlns="http://www.w3.org/2000/svg"
 width="768.000000pt" height="768.000000pt" viewBox="0 0 768.000000 768.000000"
 preserveAspectRatio="xMidYMid meet">
<metadata>
Created by potrace 1.11, written by Peter Selinger 2001-2013
</metadata>
<g transform="translate(0.000000,768.000000) scale(0.100000,-0.100000)"
fill="#000000" stroke="none">
<path d="M5020 6610 c-553 -583 -1089 -1148 -1192 -1256 l-187 -197 128 -136
c71 -75 147 -154 170 -175 l40 -39 44 39 c24 21 317 302 651 624 335 322 612
586 617 588 10 4 619 -438 619 -449 0 -3 -60 -52 -132 -106 -73 -55 -212 -160
-308 -233 -96 -74 -382 -291 -635 -483 -253 -192 -463 -352 -467 -356 -8 -7 7
-24 481 -508 200 -205 367 -373 372 -373 6 0 40 48 77 106 109 172 355 551
1196 1848 438 676 795 1234 793 1240 -5 13 -1243 926 -1254 926 -5 -1 -460
-478 -1013 -1060z"/>
<path d="M1528 5772 c-202 -114 -367 -210 -368 -213 0 -3 75 -89 167 -190 92
-101 378 -418 637 -704 258 -286 496 -548 529 -582 l59 -63 -74 -81 c-132
-147 -189 -208 -758 -809 -309 -327 -621 -654 -692 -726 l-129 -130 12 -185
c7 -101 15 -190 18 -196 8 -15 17 -7 186 156 245 237 419 405 1243 1195 463
445 842 814 842 821 0 6 -49 74 -110 151 -149 188 -659 840 -693 885 l-27 36
139 109 c77 59 139 109 138 110 -1 1 -68 58 -148 125 -80 68 -243 207 -363
309 -119 102 -223 186 -229 187 -7 1 -177 -92 -379 -205z"/>
<path d="M3248 3582 c-113 -86 -284 -216 -379 -288 -96 -72 -232 -176 -304
-231 -71 -54 -467 -355 -880 -668 -412 -313 -754 -575 -760 -581 -5 -7 -69
-56 -140 -110 -72 -55 -148 -113 -169 -131 l-38 -31 52 -539 c28 -296 55 -547
60 -559 7 -19 19 -22 111 -28 56 -3 105 -8 107 -11 2 -2 11 -64 20 -138 l15
-134 136 -12 c157 -14 304 -26 479 -41 67 -5 175 -14 240 -20 64 -5 176 -14
247 -20 72 -6 160 -13 198 -16 l67 -5 0 926 c0 738 -3 925 -12 919 -59 -36
-385 -238 -857 -533 -309 -194 -565 -351 -566 -349 -2 2 281 278 628 615 348
336 893 863 1211 1172 l580 561 165 -173 c91 -94 202 -210 247 -257 l82 -85
-174 -355 c-96 -195 -234 -479 -308 -630 -74 -151 -255 -520 -402 -820 -340
-696 -367 -751 -361 -756 9 -9 521 -34 528 -27 3 5 253 388 553 853 301 465
554 852 562 860 13 13 21 9 67 -40 29 -30 416 -439 861 -908 444 -468 809
-852 811 -852 2 0 33 52 70 115 37 63 71 117 75 120 5 3 57 -58 117 -135 81
-106 110 -137 118 -127 226 295 985 1309 985 1316 0 9 -1486 1125 -1675 1258
l-30 21 5 -849 c3 -467 4 -849 4 -849 -4 0 -699 888 -1304 1665 -167 215 -306
392 -310 395 -3 3 -118 149 -255 325 -136 176 -253 325 -259 332 -9 10 -60
-25 -218 -145z"/>
</g>
</svg>
