<?xml version="1.0" encoding="UTF-8" standalone="no"?><svg xmlns="http://www.w3.org/2000/svg" viewBox="0 0 154 298"><title>IPhoneX Camera</title><g id="Layer_2" data-name="Layer 2"><g id="Layer_1-2" data-name="Layer 1"><path d="M132.201 0H21.8A21.824 21.824 0 0 0 0 21.799V276.2A21.824 21.824 0 0 0 21.799 298H132.2A21.824 21.824 0 0 0 154 276.201V21.8A21.824 21.824 0 0 0 132.201 0zM144 276.201A11.812 11.812 0 0 1 132.201 288H21.8A11.812 11.812 0 0 1 10 276.201V21.8A11.812 11.812 0 0 1 21.799 10H132.2A11.812 11.812 0 0 1 144 21.799z"/><path d="M31.2 19h-.4A12.815 12.815 0 0 0 18 31.8v30.4A12.815 12.815 0 0 0 30.8 75h.4A12.815 12.815 0 0 0 44 62.2V31.8A12.815 12.815 0 0 0 31.2 19zM39 62.2a7.809 7.809 0 0 1-7.8 7.8h-.4a7.809 7.809 0 0 1-7.8-7.8V31.8a7.809 7.809 0 0 1 7.8-7.8h.4a7.809 7.809 0 0 1 7.8 7.8z"/><circle cx="31" cy="47" r="4"/><circle cx="31" cy="32" r="6"/><circle cx="31" cy="62" r="6"/><path d="M84.69 71.334a7.502 7.502 0 0 0-6.859 8.17c3.29.333 7.64-4.048 6.858-8.17z"/><path d="M87.487 90.14a7.85 7.85 0 0 1 3.728-6.76 9.19 9.19 0 0 0-6.063-3.409c-3.26-.588-4.557 1.52-7.043 1.52-2.47 0-3.478-1.614-5.874-1.624a6.132 6.132 0 0 0-1.118.104c-14.117 2.705-5.158 26.767 1.441 26.688 2.365 0 3.434-1.456 5.969-1.456s3.395 1.456 5.76 1.456c2.768.033 5.99-4.223 7.713-9.349a7.772 7.772 0 0 1-4.513-7.17z"/></g></g><metadata><rdf:RDF xmlns:rdf="http://www.w3.org/1999/02/22-rdf-syntax-ns#" xmlns:rdfs="http://www.w3.org/2000/01/rdf-schema#" xmlns:dc="http://purl.org/dc/elements/1.1/"><rdf:Description about="https://iconscout.com/legal#licenses" dc:title="iphonex,camera" dc:description="iphonex,camera" dc:publisher="Iconscout" dc:date="2017-09-12" dc:format="image/svg+xml" dc:language="en"><dc:creator><rdf:Bag><rdf:li>Dalpat Prajapati</rdf:li></rdf:Bag></dc:creator></rdf:Description></rdf:RDF></metadata></svg>