<?xml version="1.0" encoding="UTF-8"?>
<svg xmlns="http://www.w3.org/2000/svg" xmlns:xlink="http://www.w3.org/1999/xlink" id="Слой_1" data-name="Слой 1" viewBox="0 0 1851.19 936.09"><defs><style>.cls-1{fill:#0088eb;}.cls-2{fill:#fff;}.cls-3{fill:#0089eb;}.cls-4{fill:#00a7f8;}.cls-5{fill:#9a9a9a;}.cls-6{fill:#ba00ff;}.cls-7{mask:url(#mask);}</style><mask id="mask" x="-1573.73" y="587.23" width="6442" height="6520" maskUnits="userSpaceOnUse"><g id="mask0"><path class="cls-1" d="M855.27,590.23h126q31.5,0,45.6,14.4,14.4,14.1,14.4,45.6v27q0,24.9-8.4,38.7-8.1,13.8-26.1,18.3l37.5,66h-58.5l-34.5-63h-42v63h-54Zm132,60q0-18-18-18h-60v63h60q18,0,18-18Zm142.42,25.5q-12,0-12,12v16.5h51v-16.5q0-12-12-12Zm85.5,121.5q-57.9,6-105,6-20.4,0-32.7-12.3t-12.3-32.7v-72q0-22.5,12.6-35.1,12.9-12.9,35.4-12.9h60q22.5,0,35.1,12.9,12.9,12.6,12.9,35.1v55.5h-103.5v12a10.25,10.25,0,0,0,10.5,10.5q29.7,0,87-4.5Zm121.38-115.5q-15.9,0-36,6v72h45q12,0,12-12v-55.5a10.25,10.25,0,0,0-10.5-10.5Zm-36,118.5v51h-52.5v-210h46.5l3,15a104.36,104.36,0,0,1,28.8-13.5q15-4.5,25.2-4.5h13.5q20.4,0,32.7,12.3t12.3,32.7v69q0,22.5-12.9,35.4-12.6,12.6-35.1,12.6Zm199.47-39q15.9,0,36-6v-18h-43.5a10.25,10.25,0,0,0-10.5,10.5v3a10.25,10.25,0,0,0,10.5,10.5Zm-55.5-117q54.9-6,99-6,20.4,0,32.7,12.3t12.3,32.7v117H1542l-3-15a110.37,110.37,0,0,1-29.1,13.8q-14.7,4.2-24.9,4.2h-10.5q-20.4,0-32.7-12.3t-12.3-32.7v-13.5q0-20.4,12.3-32.7t32.7-12.3H1536v-12a10.25,10.25,0,0,0-10.5-10.5q-19.5,0-43.2,1.8-23.4,1.8-37.8,2.7Zm236.91,3v153H1629V687.73h-22.5v-40.5Zm-52.5-60h52.5v42H1629Zm174.1,97.5q-18.9,0-39,9v106.5h-52.5v-159h46.5l3,19.5q25.8-22.5,54-22.5h13.5v46.5Z"/></g></mask></defs><title>logo 44</title><rect class="cls-2" width="1851.19" height="936.09"/><path class="cls-3" d="M381.42,275.42c-34.81,0-89-40.3-146.18-38.84-75.11,1.1-144,44-182.82,112.48-78,137-20.15,339.63,56.05,451,37.37,54.23,81.34,115.41,140,113.21,56.05-2.56,76.93-36.63,145.08-36.63,67.41,0,86.83,36.63,146.18,35.53,60.45-1.1,98.56-55.32,135.56-109.91,42.5-63,60.45-123.83,61.18-127.49-1.46-.37-117.24-45.43-118.7-181-1.1-113.21,91.59-167.43,95.62-170-52.76-78-133.72-86.83-161.94-88.66C477.77,228.89,415.86,275.42,381.42,275.42ZM506,161.11c31.15-37.73,51.66-90.49,45.8-142.88-44.7,1.83-98.19,30-130.43,67.78-28.57,33.34-53.49,87.19-46.89,138.48C424.28,228.16,474.84,198.85,506,161.11Z"/><path class="cls-4" d="M506,161.11c31.15-37.73,51.66-90.49,45.8-142.88-44.7,1.83-98.19,30-130.43,67.78-28.58,33.34-53.49,87.19-46.89,138.48C424.28,228.16,474.84,198.85,506,161.11Z"/><path class="cls-4" d="M638.61,404c27.11-53.13,71.81-79.14,74.74-81-52.75-78-133.72-86.83-161.93-88.66-73.64-5.87-135.56,40.66-170,40.66-34.8,0-89-40.3-146.18-38.83-75.11,1.1-144,44-182.82,112.47C21.64,402.55,12.12,466.3,16.15,530.41A4012.63,4012.63,0,0,1,638.61,404Z"/><path class="cls-2" d="M375.19,135.83V580.24l-90.86,40.67L207,513.56,201.9,356.39l20.88-122,52.39-62.64,60.46-31.15Z"/><path d="M375.2,576.94c-5.13,0-10.26-4.76-16.12-9.89-3.67-3.29-7.33-6.59-10.26-7.69-2.57-1.1-5.13-.73-7.7-.37-3.29.37-7.69,1.1-11-2.93-5.13-6.23-1.1-17.95-.73-19.42l6.59,2.2c-1.46,3.67-2.56,10.63-.73,12.82.73,1.1,1.47,1.1,4.76.37,2.94-.37,7-1.1,11.36.73,3.67,1.47,7.7,5.13,12.09,8.8,4,3.29,9.16,8.06,11.73,8.06v7.32Z"/><path d="M341.12,395.22l-7-3.66c-.37-.37-37-19.78-76.94-18.32a7.88,7.88,0,0,1-.37-15.75c33.34-1.1,64.12,10.62,77.67,16.85l15.39-28.94c2.2-4,7-5.5,10.63-3.3,4,2.2,5.49,7,3.29,10.62Z"/><path class="cls-5" d="M303,491.21a57.89,57.89,0,1,0-57.88-57.88A57.88,57.88,0,0,0,303,491.21Z"/><path d="M303,497.08a63.75,63.75,0,1,1,63.74-63.75C367.13,468.5,338.19,497.08,303,497.08Zm0-115.78a52,52,0,1,0,52,52A52.23,52.23,0,0,0,303,381.3Z"/><path d="M243.3,434.42a6.41,6.41,0,0,1-4.4-1.46l-45.79-32.24a7.88,7.88,0,1,1,9.16-12.82l45.79,32.24a7.73,7.73,0,0,1,1.84,11A8.88,8.88,0,0,1,243.3,434.42Z"/><path d="M375.19,420.14H361.63a8.06,8.06,0,0,1,0-16.12h13.56a8.06,8.06,0,0,1,0,16.12Z"/><path d="M375.56,301.8H348.08a4.4,4.4,0,1,1,0-8.79h27.48A4.23,4.23,0,0,1,380,297.4,4.45,4.45,0,0,1,375.56,301.8Z"/><path d="M375.56,283.85H327.2a4.4,4.4,0,1,1,0-8.8h48.36a4.24,4.24,0,0,1,4.4,4.4A4.46,4.46,0,0,1,375.56,283.85Z"/><path class="cls-5" d="M375.19,693.45H315.47C295,687.59,222.78,607,210.69,587.94s-6.23-183.55-6.23-183.55,14.65,112.47,27.11,138.85,57.15,52,57.15,52,15-20.52,26.38-25.65,26-4.4,34.44-1.47,26,13.56,26,13.56"/><path d="M375.19,699.31H314.37l-.73-.36c-12.82-3.67-38.83-29-58.25-49.46-22-23.09-43.6-48.37-49.83-59-2.2-3.66-8.43-13.56-8.43-102.22,0-43.23,1.47-84.26,1.47-84.63l11.72-.73c0,1.1,14.66,111.74,26.38,137,9.16,19.78,39.2,39.57,50.56,46.9,5.5-6.6,15.76-19.05,25.28-23.45,12.82-5.86,29.31-5.13,38.84-1.83,8.79,3.29,26.38,13.55,27.11,14.29l-6.23,10.62c-4.76-2.93-18.32-11-24.55-13.19-7.32-2.56-20.51-2.93-30,1.1-8.06,3.66-20.15,18.68-23.81,23.81l-3.3,4.4L285.8,600c-1.84-1.1-46.53-26.75-59.72-54.59C220.22,533,214,503.3,209.23,474v14.29c0,76.94,4.76,92.69,6.59,96,12.46,20.15,82.07,96,100.39,103h59Z"/><path class="cls-2" d="M358,648.75a8.91,8.91,0,0,1,8.79-8.79h8.8V593.07H339.29A33.46,33.46,0,0,0,306,626.41a33.08,33.08,0,0,0,30,33h13.19a8.91,8.91,0,0,0,8.79-8.79v-1.84Z"/><path d="M375.19,635.56h-30.4a5.23,5.23,0,0,1-5.13-5.13,5,5,0,0,1,5.13-5.12h30.4a5.23,5.23,0,0,1,5.13,5.12A5,5,0,0,1,375.19,635.56Z"/><path class="cls-2" d="M279.57,439.56a5.22,5.22,0,0,1-2.2-.74,2.87,2.87,0,0,1,0-4l30.05-30a2.85,2.85,0,0,1,4,4l-30.05,30A2.77,2.77,0,0,1,279.57,439.56Z"/><path class="cls-2" d="M278.84,460.44a5.14,5.14,0,0,1-2.2-.74,2.87,2.87,0,0,1,0-4l50.56-50.19a2.85,2.85,0,1,1,4,4L280.67,459.7C280.3,460.44,279.57,460.44,278.84,460.44Z"/><path class="cls-2" d="M194.94,390.09l7,114.68s-34.07-5.86-38.46-53.12C159.41,404.75,194.94,390.09,194.94,390.09Z"/><path d="M207.4,510.63l-6.23-1.1c-.37,0-9.89-1.83-19.79-9.89-9.15-7.33-20.15-21.62-22.71-47.63s7-42.87,15.39-52c9.16-10.25,18.68-14.28,19.05-14.28l6.23-2.57ZM190.54,398.52c-9.16,6.23-24.91,21.62-22,52.76,2.93,30.77,19.05,42.13,28.21,46.53Z"/><path class="cls-6" d="M303.39,145l-2.2-1.83a150.51,150.51,0,0,0-18.69,9.89Z"/><path class="cls-6" d="M349.18,131.43a14.8,14.8,0,0,1,3.66-2.93,175.52,175.52,0,0,0-51.29,14.66l46.53-12.82Z"/><path d="M187.88,329.64c0,6.6.36,12.82.73,19.05,0,.37,3.66,45.43,3.66,45.43l9.89,4.4.37-.73,10.26,7.69c0-.73-.37-1.46-.37-2.56a17.45,17.45,0,0,1,9.16-15.39,17,17,0,0,0,8.43-15v-2.2a229.8,229.8,0,0,1-2.2-32.24c0-76.94,35.17-143.62,85.73-174a10.26,10.26,0,0,1,6.6-2.2,10,10,0,0,1,6.22,2.2c.37.37.74.37.74.73l23.08,20.52,1.46,1.47,1.1.73a37.75,37.75,0,0,0,22.72,7.69h.73V126.67C272.51,126.67,187.88,217.53,187.88,329.64Z"/><path class="cls-2" d="M375.19,135.83V580.24l90.86,40.67,77.67-107.35,4.77-157.17L528,234.38l-52.76-62.64-60.45-31.15Z"/><path d="M374.83,576.51v-7c2.56,0,7.69-4.76,11.72-8.06,4.4-3.66,8.06-7.33,12.09-8.79A17.84,17.84,0,0,1,410,552c3.3.37,4,.37,4.76-.36,1.83-2.2.73-9.16-.73-12.82l6.59-2.2c.37,1.46,4.4,13.19-.73,19.41-3.3,4-7.69,3.67-11,2.94-2.57-.37-5.13-.74-7.69.36-2.94,1.1-6.6,4.4-10.26,7.7C385.08,571.75,380,576.51,374.83,576.51Z"/><path d="M409.63,395.22l-22.71-42.86A7.87,7.87,0,1,1,400.84,345L416.23,374c13.55-6.22,44.33-18,77.67-16.85a7.88,7.88,0,0,1-.37,15.76c-39.93-1.47-76.57,18.31-76.94,18.31Z"/><path class="cls-5" d="M447.37,491.21a57.89,57.89,0,1,0-57.89-57.88A57.88,57.88,0,0,0,447.37,491.21Z"/><path d="M447.37,497.08a63.75,63.75,0,1,1,63.75-63.75A63.8,63.8,0,0,1,447.37,497.08Zm0-115.78a52,52,0,1,0,52,52A52.23,52.23,0,0,0,447.37,381.3Z"/><path d="M507.45,434.42a8.3,8.3,0,0,1-6.59-3.29,7.73,7.73,0,0,1,1.83-11l45.8-32.24a7.88,7.88,0,0,1,9.16,12.82L511.85,433A7,7,0,0,1,507.45,434.42Z"/><path d="M388.75,420.14H375.19a8.06,8.06,0,0,1,0-16.12h13.56a8.06,8.06,0,0,1,0,16.12Z"/><path d="M402.67,301.8H375.19a4.4,4.4,0,0,1,0-8.79h27.48a4.23,4.23,0,0,1,4.4,4.39A4.46,4.46,0,0,1,402.67,301.8Z"/><path d="M423.55,283.85H375.19a4.4,4.4,0,0,1,0-8.8h48.36a4.23,4.23,0,0,1,4.4,4.4A4.46,4.46,0,0,1,423.55,283.85Z"/><path class="cls-5" d="M375.19,693.45h59.72c20.52-5.86,92.69-86.46,104.78-105.51s6.23-183.56,6.23-183.56-14.65,112.48-27.11,138.86-57.15,52-57.15,52-15-20.51-26.38-25.64-26-4.4-34.44-1.47-26,13.56-26,13.56"/><path d="M374.59,699V687.22h59c18.68-7,88.29-82.8,100.38-103,1.83-3.3,6.6-19,6.6-96V474c-5.13,28.95-11.36,59-16.86,71.45C510.51,573.28,465.82,598.93,464,600l-4.76,2.57-3.3-4.4c-4-5.49-15.75-20.15-23.81-23.81-9.53-4.4-22.35-4-30-1.1-6.6,2.2-20.15,10.26-24.55,13.19l-6.23-10.26c.74-.37,17.95-11,27.11-14.29,9.53-3.3,26-4.39,38.84,1.83,9.16,4.4,19.78,16.49,25.28,23.45,11.36-7,41-27.11,50.56-46.89,11.72-25.28,26.38-135.93,26.38-137l11.72.74c0,.36,1.47,41.76,1.47,84.63,0,88.66-6.23,98.55-8.43,102.22-6.23,10.25-27.84,35.53-49.83,59C475,670.37,449,695.65,436.14,699.31l-.73.37Z"/><path class="cls-2" d="M392.41,648.75a8.91,8.91,0,0,0-8.79-8.79h-8.79V593.07H411.1a33.46,33.46,0,0,1,33.34,33.34,33.09,33.09,0,0,1-30.05,33H401.2a8.91,8.91,0,0,1-8.79-8.79v-1.84Z"/><path d="M401.2,635.56h-26a5.24,5.24,0,0,1-5.13-5.13,5,5,0,0,1,5.13-5.13h22l10.26-9.52a4.92,4.92,0,0,1,7,7Z"/><path class="cls-2" d="M555.45,390.1l-7,114.67s34.07-5.86,38.47-53.12C591.35,404.75,555.45,390.1,555.45,390.1Z"/><path d="M543,510.63l7.7-127.86,6.22,2.56c.37,0,10.26,4,19.06,14.29,8.42,9.53,17.58,26,15.38,52S577.8,492,568.64,499.27c-9.89,8.06-19.42,9.9-19.79,9.9Zm16.86-112.11-6.23,99.29c9.16-4,25.28-15.76,28.21-46.53S569,404.75,559.85,398.52Z"/><path class="cls-6" d="M447,145l2.2-1.83a151.09,151.09,0,0,1,18.68,9.89Z"/><path class="cls-6" d="M401.2,131.43a14.8,14.8,0,0,0-3.66-2.93,175.52,175.52,0,0,1,51.29,14.66L402.3,130.34Z"/><path d="M563.51,329.64c0,6.6-.37,12.82-.74,19.05,0,.37-3.66,45.43-3.66,45.43l-9.89,4.4-.37-.73-10.26,7.69c0-.73.37-1.46.37-2.56a17.43,17.43,0,0,0-9.16-15.39,17,17,0,0,1-8.43-15v-2.2a229.8,229.8,0,0,0,2.2-32.24c0-76.94-35.17-143.62-85.73-174a10.25,10.25,0,0,0-6.59-2.2A10,10,0,0,0,425,164c-.37.37-.73.37-.73.73L401.2,185.29l-1.46,1.47-1.1.73a37.75,37.75,0,0,1-22.72,7.69h-.73V126.67C478.87,126.67,563.51,217.53,563.51,329.64Z"/><path d="M141.45,845.13c30,38.1,64.85,69.61,107,68.14,56.05-2.56,76.94-36.63,145.08-36.63,67.42,0,86.83,36.63,146.19,35.53,34.8-.73,61.91-18.68,86.09-44.33-33-52-98.55-92-179.15-107.34a6.93,6.93,0,0,0,.73-2.57V736.68a6.57,6.57,0,0,0-6.6-6.59h-7.32V703.34c0-4-2.57-7.69-6.23-7.69h-104c-3.3,0-6.23,3.3-6.23,7.69v26.75h-7.33a6.56,6.56,0,0,0-6.59,6.59v20.89a5.33,5.33,0,0,0,.73,2.56C235.24,773,177.35,803.73,141.45,845.13Z"/><path class="cls-2" d="M419.89,703.71h-89.4c-2.93,0-5.12,1.46-5.12,3.29v12.09c0,1.84,2.19,3.3,5.12,3.3h89.4c2.93,0,5.13-1.46,5.13-3.3V707C425,705.17,422.82,703.71,419.89,703.71Z"/><path d="M990.94,467.73H906.86l-21.24,60.5H857.94l77.92-211.38h26.08l77.93,211.38h-27.69Zm-76.32-22.41h68.56l-33.84-96.39h-.88Zm222.07-76.47a64,64,0,0,1,27.54,5.86A61.22,61.22,0,0,1,1185.62,391a74.53,74.53,0,0,1,13.77,25.49,102.37,102.37,0,0,1,5,32.81,103.75,103.75,0,0,1-5,33,76.07,76.07,0,0,1-13.63,25.34A61.37,61.37,0,0,1,1164.52,524a63.86,63.86,0,0,1-27.24,5.71q-16.85,0-29.89-7a51.33,51.33,0,0,1-20.5-20.07h-.59V581h-25.49V370.32H1085V396h.59a47.83,47.83,0,0,1,8.79-11.13,58.32,58.32,0,0,1,12-8.5,60.85,60.85,0,0,1,14.36-5.56A66.66,66.66,0,0,1,1136.69,368.85ZM1132,507a42.94,42.94,0,0,0,18.9-4.1,41.34,41.34,0,0,0,14.65-11.58,53.16,53.16,0,0,0,9.37-18.16,85.76,85.76,0,0,0,0-47.61,51.47,51.47,0,0,0-9.37-18.16,40.53,40.53,0,0,0-14.65-11.72,42.8,42.8,0,0,0-18.9-4.1,41.27,41.27,0,0,0-18.75,4.25,42.8,42.8,0,0,0-14.5,11.71,56.89,56.89,0,0,0-9.37,18.31,80,80,0,0,0-3.23,23.44,81.45,81.45,0,0,0,3.23,23.59,57,57,0,0,0,9.37,18.16,44.53,44.53,0,0,0,14.5,11.87A42.65,42.65,0,0,0,1132,507Zm175.2-138.14a64,64,0,0,1,27.54,5.86A61.22,61.22,0,0,1,1356.13,391a74.35,74.35,0,0,1,13.76,25.49,102.09,102.09,0,0,1,5,32.81,103.47,103.47,0,0,1-5,33,75.88,75.88,0,0,1-13.62,25.34A61.37,61.37,0,0,1,1335,524a63.86,63.86,0,0,1-27.24,5.71q-16.85,0-29.89-7a51.42,51.42,0,0,1-20.51-20.07h-.58V581h-25.49V370.32h24.17V396h.59a47.83,47.83,0,0,1,8.79-11.13,58,58,0,0,1,12-8.5,60.78,60.78,0,0,1,14.35-5.56A66.8,66.8,0,0,1,1307.2,368.85ZM1302.51,507a43,43,0,0,0,18.9-4.1,41.43,41.43,0,0,0,14.65-11.58,53.34,53.34,0,0,0,9.37-18.16,85.76,85.76,0,0,0,0-47.61,51.64,51.64,0,0,0-9.37-18.16,40.62,40.62,0,0,0-14.65-11.72,42.83,42.83,0,0,0-18.9-4.1,41.27,41.27,0,0,0-18.75,4.25,42.8,42.8,0,0,0-14.5,11.71,56.89,56.89,0,0,0-9.37,18.31,80,80,0,0,0-3.23,23.44,81.45,81.45,0,0,0,3.23,23.59,57,57,0,0,0,9.37,18.16,44.53,44.53,0,0,0,14.5,11.87A42.65,42.65,0,0,0,1302.51,507Zm100.78-199.37h25.49V528.23h-25.49Zm124.52,83.64a44.93,44.93,0,0,0-17.14,3.23,41.1,41.1,0,0,0-13.77,9.08,47.31,47.31,0,0,0-9.38,14.21,53.85,53.85,0,0,0-4.1,18.16h86.87a54.12,54.12,0,0,0-3.52-18.31,41.09,41.09,0,0,0-8.64-14.06,38.51,38.51,0,0,0-13.33-9.08A43.17,43.17,0,0,0,1527.81,391.26Zm67.08,91.85a47,47,0,0,1-7.32,18.75,58,58,0,0,1-14.5,14.8,69.86,69.86,0,0,1-19.92,9.66,81.41,81.41,0,0,1-23.73,3.37,77.24,77.24,0,0,1-30-5.56,64,64,0,0,1-22.85-16A72.59,72.59,0,0,1,1462,483a103.32,103.32,0,0,1-5-33.1,104.71,104.71,0,0,1,5-33.25,75.4,75.4,0,0,1,14.36-25.49A62.86,62.86,0,0,1,1499,374.71a76.66,76.66,0,0,1,57.71-.44,59.7,59.7,0,0,1,21.68,15.53A67.08,67.08,0,0,1,1592,414.12a100.68,100.68,0,0,1,4.83,32.22v10H1483.42v1.47a61.89,61.89,0,0,0,3.22,20.51,44.7,44.7,0,0,0,9.52,15.52,42.44,42.44,0,0,0,14.65,10,50.37,50.37,0,0,0,19.19,3.52,57.53,57.53,0,0,0,13.92-1.61,45.36,45.36,0,0,0,11.57-4.84,33.14,33.14,0,0,0,8.79-7.61,30.72,30.72,0,0,0,5.42-10.11Z"/><path class="cls-4" d="M855.27,590.23h126q31.5,0,45.6,14.4,14.4,14.1,14.4,45.6v27q0,24.9-8.4,38.7-8.1,13.8-26.1,18.3l37.5,66h-58.5l-34.5-63h-42v63h-54Zm132,60q0-18-18-18h-60v63h60q18,0,18-18Zm142.42,25.5q-12,0-12,12v16.5h51v-16.5q0-12-12-12Zm85.5,121.5q-57.9,6-105,6-20.4,0-32.7-12.3t-12.3-32.7v-72q0-22.5,12.6-35.1,12.9-12.9,35.4-12.9h60q22.5,0,35.1,12.9,12.9,12.6,12.9,35.1v55.5h-103.5v12a10.25,10.25,0,0,0,10.5,10.5q29.7,0,87-4.5Zm121.38-115.5q-15.9,0-36,6v72h45q12,0,12-12v-55.5a10.25,10.25,0,0,0-10.5-10.5Zm-36,118.5v51h-52.5v-210h46.5l3,15a104.36,104.36,0,0,1,28.8-13.5q15-4.5,25.2-4.5h13.5q20.4,0,32.7,12.3t12.3,32.7v69q0,22.5-12.9,35.4-12.6,12.6-35.1,12.6Zm199.47-39q15.9,0,36-6v-18h-43.5a10.25,10.25,0,0,0-10.5,10.5v3a10.25,10.25,0,0,0,10.5,10.5Zm-55.5-117q54.9-6,99-6,20.4,0,32.7,12.3t12.3,32.7v117H1542l-3-15a110.37,110.37,0,0,1-29.1,13.8q-14.7,4.2-24.9,4.2h-10.5q-20.4,0-32.7-12.3t-12.3-32.7v-13.5q0-20.4,12.3-32.7t32.7-12.3H1536v-12a10.25,10.25,0,0,0-10.5-10.5q-19.5,0-43.2,1.8-23.4,1.8-37.8,2.7Zm236.91,3v153H1629V687.73h-22.5v-40.5Zm-52.5-60h52.5v42H1629Zm174.1,97.5q-18.9,0-39,9v106.5h-52.5v-159h46.5l3,19.5q25.8-22.5,54-22.5h13.5v46.5Z"/><g class="cls-7"><circle class="cls-1" cx="1647.27" cy="3886.23" r="3221"/></g><path class="cls-2" d="M425.28,444a5.26,5.26,0,0,1-2.19-.73,2.87,2.87,0,0,1,0-4l30-30a2.85,2.85,0,0,1,4,4l-30,30A2.84,2.84,0,0,1,425.28,444Z"/><path class="cls-5" d="M426.2,461.45a5.18,5.18,0,0,1-2.2-.74,2.87,2.87,0,0,1,0-4l50.56-50.19a2.85,2.85,0,0,1,4,4L428,460.71C427.66,461.45,426.93,461.45,426.2,461.45Z"/><path d="M376.61,184.89c7.72,0,7.73-12,0-12s-7.74,12,0,12Z"/><path d="M375.27,177.56c7.72,0,7.74-12,0-12s-7.73,12,0,12Z"/><path d="M377.27,162.89c7.72,0,7.74-12,0-12s-7.73,12,0,12Z"/><path d="M375.27,167.56c7.72,0,7.74-12,0-12s-7.73,12,0,12Z"/><path d="M376.61,152.89c7.72,0,7.73-12,0-12s-7.74,12,0,12Z"/><path d="M375.94,146.89c7.72,0,7.73-12,0-12s-7.73,12,0,12Z"/><path d="M376.61,192.23c7.72,0,7.73-12,0-12s-7.74,12,0,12Z"/><path d="M375.94,192.89c7.72,0,7.73-12,0-12s-7.73,12,0,12Z"/><path d="M376.61,194.23c7.72,0,7.73-12,0-12s-7.74,12,0,12Z"/><path d="M376.61,194.89c7.72,0,7.73-12,0-12s-7.74,12,0,12Z"/><path class="cls-2" d="M374.61,620.23c7.72,0,7.73-12,0-12s-7.74,12,0,12Z"/><path class="cls-2" d="M374.52,609.48c7.72,0,7.74-12,0-12s-7.73,12,0,12Z"/><path class="cls-2" d="M375.27,608.1c7.72,0,7.74-12,0-12s-7.73,12,0,12Z"/><path class="cls-2" d="M374.9,607.23c7.72,0,7.73-12,0-12s-7.74,12,0,12Z"/><path class="cls-2" d="M375.15,606.48c7.72,0,7.73-12,0-12s-7.74,12,0,12Z"/><path class="cls-2" d="M375.27,605.85c7.72,0,7.74-12,0-12s-7.73,12,0,12Z"/><path class="cls-2" d="M375.4,605.35c7.72,0,7.73-12,0-12s-7.74,12,0,12Z"/><path class="cls-2" d="M375,605.23c7.72,0,7.74-12,0-12s-7.73,12,0,12Z"/><path class="cls-2" d="M375.27,559c7.72,0,7.74-12,0-12s-7.73,12,0,12Z"/><path class="cls-2" d="M375.15,560.48c7.72,0,7.73-12,0-12s-7.74,12,0,12Z"/><path class="cls-2" d="M375.27,562.35c7.72,0,7.74-12,0-12s-7.73,12,0,12Z"/><path class="cls-2" d="M375.27,564.48c7.72,0,7.74-12,0-12s-7.73,12,0,12Z"/><path class="cls-2" d="M375.52,566.1c7.72,0,7.74-12,0-12s-7.73,12,0,12Z"/><path class="cls-2" d="M375.65,567.73c7.72,0,7.73-12,0-12s-7.74,12,0,12Z"/><path class="cls-2" d="M375.52,568.6c7.72,0,7.74-12,0-12s-7.73,12,0,12Z"/><path class="cls-2" d="M374.77,568.6c7.72,0,7.74-12,0-12s-7.73,12,0,12Z"/><path class="cls-2" d="M374.44,551.39c7.72,0,7.73-12,0-12s-7.73,12,0,12Z"/><path class="cls-2" d="M374.61,543.89c7.72,0,7.73-12,0-12s-7.74,12,0,12Z"/><path class="cls-2" d="M375.61,564.39c7.72,0,7.73-12,0-12s-7.74,12,0,12Z"/><path class="cls-2" d="M377.27,534.23c7.72,0,7.74-12,0-12s-7.73,12,0,12Z"/><path class="cls-2" d="M374.77,535.73c7.72,0,7.74-12,0-12s-7.73,12,0,12Z"/><path class="cls-2" d="M374.94,545.89c7.72,0,7.73-12,0-12s-7.73,12,0,12Z"/><path class="cls-2" d="M380.73,535.16l.17-.67a6.3,6.3,0,0,0-.6-4.62,6.13,6.13,0,0,0-3.59-2.76,6,6,0,0,0-7.38,4.19l-.17.67a6.25,6.25,0,0,0,.61,4.62,6,6,0,0,0,11-1.43Z"/><path class="cls-2" d="M369.39,533.4c-.28,4-.42,8-.43,12,0,6.68,10.16,8.27,11.78,1.6a70,70,0,0,0,1.59-17.63c0-2.46-.46-4.77-.68-7.2-.07-.73-.22-1.58-.31-.4.1-1.31.6-2.86.78-4.2.42-3.24-3.07-6-6-6-3.6,0-5.58,2.8-6,6-.26,2-.83,3.44-.55,5.51.24,1.82.66,3.47.75,5.34a54.44,54.44,0,0,1-1.15,15.39L381,545.38c0-4,.15-8,.43-12,.55-7.7-11.45-7.67-12,0Z"/><path class="cls-2" d="M369.93,490.4c0,8.4-.41,16.78-1.08,25.16-.56,6.89-.62,13.44,2.87,19.64,3.78,6.73,14.15.69,10.36-6.06-2.89-5.14-1.34-11.84-.93-17.45.52-7.09.75-14.19.78-21.29,0-7.73-12-7.74-12,0Z"/><path class="cls-2" d="M380.85,494.94c3.12-10.57,1-22.37.41-33.18-.45-7.68-12.45-7.73-12,0,.57,9.58,2.77,20.65,0,30-2.18,7.43,9.39,10.6,11.57,3.19Z"/><path class="cls-2" d="M381.83,463c.91-6.18.4-12.44,1.29-18.6.46-3.2-.79-6.44-4.19-7.38-2.82-.77-6.92,1-7.39,4.19-.89,6.18-.37,12.45-1.28,18.6-.48,3.2.79,6.45,4.19,7.38,2.82.78,6.9-1,7.38-4.19Z"/><path class="cls-2" d="M370.22,436.06c-.45,7.62-.78,15.25-.93,22.88-.14,6.9-1.06,14.66,1.25,21.29s11.08,5.11,11.79-1.59l.28-2.75c.81-7.67-11.2-7.61-12,0l-.28,2.75,11.78-1.6c-2.11-6.05-.93-13.68-.78-20,.17-7,.48-14,.89-21,.46-7.71-11.54-7.69-12,0Z"/><path class="cls-2" d="M380.48,437.64c.29-1.94.56-3.9.68-5.86,0-.72.06-1.43.07-2.15,0-.47,0-.94,0-1.41-.14.45-.09.31.16-.4,1.07-3-1.2-6.7-4.19-7.38a6.15,6.15,0,0,0-7.38,4.19c-1.07,3-.52,7.27-.9,9.82-.47,3.09.77,6.61,4.19,7.38,2.85.65,6.87-.87,7.38-4.19Z"/><path class="cls-2" d="M369,391.89a54.83,54.83,0,0,1,.33,6,6,6,0,0,0,12,0,54.83,54.83,0,0,0-.33-6,6.54,6.54,0,0,0-1.75-4.24,6.16,6.16,0,0,0-4.25-1.76c-2.95.13-6.37,2.66-6,6Z"/><path class="cls-2" d="M381.41,390.57a162.28,162.28,0,0,0,.37-19.35c-.32-7.7-12.32-7.74-12,0a162.28,162.28,0,0,1-.37,19.35c-.61,7.7,11.39,7.66,12,0Z"/><path class="cls-2" d="M380.41,375c-1-3.63,1.22-7.83,1.55-11.51.36-4,.17-8,.2-12,0-7.73-12-7.73-12,0,0,4.41.43,9.15-.53,13.48-1,4.59-2.06,8.59-.79,13.27,2,7.44,13.6,4.28,11.57-3.19Z"/><path class="cls-2" d="M370.19,382.39q-.07,5.25-.33,10.5a6,6,0,0,0,12,0q.25-5.25.33-10.5a6,6,0,0,0-12,0Z"/><path class="cls-2" d="M382,372.05a259.11,259.11,0,0,0,.71-29c-.16-5.16-6.47-8-10.24-4.25a9.51,9.51,0,0,0-2.54,4.28c-1,3.35,1.27,6.2,4.19,7.38a6.79,6.79,0,0,0,4.92.06c4-1.27,5.21-5.22,3.58-8.81a14.48,14.48,0,0,1-.87-8c.91-7.65-11.09-7.59-12,0a25.73,25.73,0,0,0,2.51,14.07l3.59-8.81,1.46-.06,4.2,7.38-.56,1-10.24-4.24a259.11,259.11,0,0,1-.71,29c-.61,7.7,11.39,7.66,12,0Z"/><path class="cls-2" d="M381,345.13c.21-4.51-1-8.91-1-13.43a81.26,81.26,0,0,1,1.84-14.49c1.41-7.55-10.16-10.78-11.58-3.19a115.1,115.1,0,0,0-2.21,15.88c-.22,5.14,1.21,10.14,1,15.23-.38,7.72,11.62,7.7,12,0Z"/><path class="cls-2" d="M381.74,323.29c-.79-2-.36-4.86-.38-7l-.06-8.19c-.05-7.72-12.05-7.74-12,0l.07,9.45c0,3-.28,6.17.8,9,1.17,3,4,5.11,7.38,4.19,2.89-.8,5.36-4.35,4.19-7.38Z"/><path class="cls-2" d="M370.41,258.35a13.44,13.44,0,0,0-1,5.91c-.08,2.28-.59,4.14.32,6.38,1.12,2.76,3.41,4.77,6.58,4.29a6,6,0,0,0,5.21-5.89q0-6.81.4-13.6l-9,5.18.38.29c2.6,1.95,6.71.41,8.21-2.15,1.8-3.07.45-6.26-2.15-8.21l-.38-.29c-3.94-3-8.77,1.14-9,5.18q-.43,6.8-.4,13.6l11.78-1.59c-.54-1.33,0-3.79.05-5.47l-.82,3,.28-.6c1.33-3,.84-6.46-2.16-8.21-2.57-1.51-6.86-.82-8.21,2.15Z"/><path class="cls-2" d="M368.64,213.6c1.78,7.34.31,15.42.12,22.89-.2,7.95-.09,15.89.26,23.84.33,7.69,12.33,7.73,12,0-.37-8.61-.47-17.22-.2-25.83.25-8.07,1.32-16.14-.6-24.09-1.82-7.51-13.39-4.33-11.58,3.19Z"/><path class="cls-2" d="M380.56,226.68c1.05-4.24-1.16-7.78-.68-12,.51-4.57,1.94-8.82,1.48-13.47-.75-7.62-12.76-7.7-12,0,.4,4.08-.78,7.86-1.31,11.87a22.94,22.94,0,0,0-.18,5.49c.11,1.13,1.36,3.9,1.12,4.88-1.85,7.5,9.72,10.7,11.57,3.19Z"/><path class="cls-2" d="M375.44,102.89c7.72,0,7.73-12,0-12s-7.73,12,0,12Z"/><path class="cls-2" d="M375.18,290a1.5,1.5,0,0,0,0-3,1.5,1.5,0,0,0,0,3Z"/><path class="cls-2" d="M373.76,288a12.29,12.29,0,0,1-.08,1.8c0,.71.14,1.42.24,2.13a1.53,1.53,0,0,0,1.85,1.05,1.55,1.55,0,0,0,1.05-1.85,11.1,11.1,0,0,1-.15-1.91,6.52,6.52,0,0,0,0-2c-.47-1.87-3.37-1.07-2.89.8Z"/><path class="cls-2" d="M376.64,286.38c0-.33,0-.66,0-1a1.5,1.5,0,0,0-3,0c0,.34,0,.67,0,1a1.5,1.5,0,0,0,1.5,1.5,1.54,1.54,0,0,0,1.5-1.5Z"/><path class="cls-5" d="M380.69,663.35a55.89,55.89,0,0,0,.09-5.79,6,6,0,0,0-12,0,55.89,55.89,0,0,1-.09,5.79,6,6,0,0,0,1.76,4.24,6.09,6.09,0,0,0,4.24,1.76c3.54-.16,5.64-2.65,6-6Z"/><path class="cls-5" d="M381,589.19a7.38,7.38,0,0,1,0-1.05l-.21,1.6,0-.18a4.52,4.52,0,0,0,.1-2.39,4.38,4.38,0,0,0-.71-2.23,6,6,0,0,0-8.21-2.15,5.81,5.81,0,0,0-2.75,3.58,14.13,14.13,0,0,0-.29,2.82,6.32,6.32,0,0,0,1.76,4.24,6,6,0,0,0,8.49,0,6,6,0,0,0,1.75-4.24Z"/><path class="cls-5" d="M375,594.66c7.72,0,7.74-12,0-12s-7.73,12,0,12Z"/><path class="cls-5" d="M375.09,595.16c7.72,0,7.73-12,0-12s-7.74,12,0,12Z"/><path class="cls-2" d="M426.2,464a5.3,5.3,0,0,1-2.2-.73,2.87,2.87,0,0,1,0-4L474.56,409a2.85,2.85,0,0,1,4,4L428,463.22C427.66,464,426.93,464,426.2,464Z"/><path class="cls-5" d="M375.36,686.73c7.72,0,7.73-12,0-12s-7.74,12,0,12Z"/><path class="cls-5" d="M381.4,680.73c0-3.79.88-7.59,0-11.32a6,6,0,1,0-11.57,3.19c-.15-.61,0,.92,0,1.17-.05.83-.19,1.65-.28,2.47a37.42,37.42,0,0,0-.14,4.49,6,6,0,0,0,12,0Z"/><path class="cls-5" d="M381.88,672.73a64.49,64.49,0,0,0-.21-8.34c-.28-3.12-2.56-6.15-6-6-3,.14-6.3,2.65-6,6a64.49,64.49,0,0,1,.21,8.34,6,6,0,0,0,6,6,6.13,6.13,0,0,0,6-6Z"/><path class="cls-5" d="M381.58,668.52a48.51,48.51,0,0,1,.24-7.33c.34-3.14-3-6.14-6-6-3.54.15-5.64,2.64-6,6a48.51,48.51,0,0,0-.24,7.33c.14,3.13,2.66,6.15,6,6,3.14-.14,6.15-2.64,6-6Z"/><path class="cls-5" d="M381.88,664.85l-.08-6.71c0-3.13-2.74-6.14-6-6a6.1,6.1,0,0,0-6,6l.08,6.71c0,3.14,2.73,6.15,6,6a6.09,6.09,0,0,0,6-6Z"/><path class="cls-5" d="M380.88,665q.11-3.88.05-7.75c-.05-3.14-2.73-6.15-6-6a6.1,6.1,0,0,0-6,6q.06,3.87-.05,7.75a6,6,0,0,0,12,0Z"/><path class="cls-5" d="M381,660.73c0-2,.07-4,.13-6.05a6,6,0,0,0-6-6,6.13,6.13,0,0,0-6,6c-.06,2-.11,4-.13,6.05a6,6,0,0,0,12,0Z"/><path class="cls-5" d="M379.75,660a11.6,11.6,0,0,0-.19-3.42c0-.2-.27-1.92-.12-.86-.18-1.28-.28.48,0-.78a20.38,20.38,0,0,1,.71-2.3c1.08-2.95-1.2-6.7-4.19-7.38a6.16,6.16,0,0,0-7.38,4.19,17.49,17.49,0,0,0-1.17,5.67,24.5,24.5,0,0,0,.37,3.42c.13.74.14.82,0,.25a4.46,4.46,0,0,1-.08,1.21c-.41,3.13,3.06,6.13,6,6,3.61-.16,5.56-2.65,6-6Z"/><path class="cls-5" d="M381,660.14c.43-4.11,1.44-8.12.36-12.42a6,6,0,0,0-11.57,3.19c.68,2.73-.48,6.26-.79,9.23-.34,3.23,3,6,6,6,3.53,0,5.65-2.76,6-6Z"/><path class="cls-5" d="M375.65,658c7.72,0,7.73-12,0-12s-7.74,12,0,12Z"/><path class="cls-5" d="M381.64,652a9.84,9.84,0,0,0,0-1.8,6.37,6.37,0,0,0-1.75-4.24,6.14,6.14,0,0,0-4.25-1.76,6.05,6.05,0,0,0-4.24,1.76,5.92,5.92,0,0,0-1.76,4.24,9.84,9.84,0,0,1,0,1.8,6,6,0,0,0,1.76,4.24,6.13,6.13,0,0,0,4.24,1.76,6.05,6.05,0,0,0,4.24-1.76l.94-1.21a5.89,5.89,0,0,0,.82-3Z"/><path class="cls-5" d="M381.44,651.74a13.75,13.75,0,0,0,.25-2.39,6.27,6.27,0,0,0-1.76-4.24,6.13,6.13,0,0,0-4.24-1.76,6.05,6.05,0,0,0-4.24,1.76,6,6,0,0,0-1.76,4.24,4.56,4.56,0,0,1,0,.64l.22-1.6,0,.16a4.52,4.52,0,0,0-.11,2.39,4.38,4.38,0,0,0,.71,2.23,6,6,0,0,0,8.21,2.16l1.21-.94a6,6,0,0,0,1.55-2.65Z"/><path class="cls-5" d="M375.65,655c7.72,0,7.73-12,0-12s-7.74,12,0,12Z"/><path class="cls-5" d="M375.65,654.6c7.72,0,7.73-12,0-12s-7.74,12,0,12Z"/><path class="cls-5" d="M375.65,654.44c7.72,0,7.73-12,0-12s-7.74,12,0,12Z"/><path class="cls-5" d="M375.65,654.23c7.72,0,7.73-12,0-12s-7.74,12,0,12Z"/><path class="cls-5" d="M375.69,654.06c7.72,0,7.73-12,0-12s-7.73,12,0,12Z"/><path class="cls-5" d="M375.69,653.85c7.72,0,7.73-12,0-12s-7.73,12,0,12Z"/><path class="cls-5" d="M375.65,653.64c7.72,0,7.73-12,0-12s-7.74,12,0,12Z"/><path class="cls-5" d="M375.69,653.31c7.72,0,7.73-12,0-12s-7.73,12,0,12Z"/><path class="cls-5" d="M375.73,653.06c7.72,0,7.74-12,0-12s-7.73,12,0,12Z"/><path class="cls-5" d="M375.69,652.89c7.72,0,7.73-12,0-12s-7.73,12,0,12Z"/><path class="cls-5" d="M375.73,652.6c7.72,0,7.74-12,0-12s-7.73,12,0,12Z"/><path class="cls-5" d="M375.73,652.39c7.72,0,7.74-12,0-12s-7.73,12,0,12Z"/><path class="cls-5" d="M375.73,652.06c7.72,0,7.74-12,0-12s-7.73,12,0,12Z"/></svg>