	<svg width="15" height="18" viewBox="0 0 15 18" id="map-marker" xmlns="http://www.w3.org/2000/svg">
		<g>
			<path d="M12.803 2.23A7.395 7.395 0 007.5 0a7.395 7.395 0 00-5.303 2.23A7.621 7.621 0 000 7.613c0 4.114 3.832 7.535 5.89 9.374.287.255.534.476.73.662a1.275 1.275 0 001.76 0c.196-.186.443-.407.73-.662 2.058-1.839 5.89-5.26 5.89-9.374a7.62 7.62 0 00-2.197-5.383zM7.5 10.68c-1.822 0-3.305-1.505-3.305-3.355S5.678 3.97 7.5 3.97s3.305 1.505 3.305 3.355S9.322 10.68 7.5 10.68z" fill="#277de2"></path>
		</g>
	</svg>