<svg width="2078" height="493" viewBox="0 0 2078 493" fill="none" xmlns="http://www.w3.org/2000/svg">
<path d="M356.021 315.777L477.803 492.656L481.179 486.745L356.021 315.777Z" fill="#D873D1"/>
<path d="M549.42 492.533L477.783 492.656L481.159 486.745L549.42 492.533Z" fill="url(#paint0_linear)"/>
<path d="M570.301 459.108L549.441 492.537L356.022 315.781L385.735 264.999L570.301 459.108Z" fill="url(#paint1_linear)"/>
<path d="M481.159 486.75L356.001 315.781L549.42 492.537L481.159 486.75Z" fill="#B653BE"/>
<path d="M277.051 213.486L66.6604 170.443L68.3251 177.043L277.051 213.486Z" fill="#D873D1"/>
<path d="M15.1336 220.181L66.6752 170.428L68.3398 177.028L15.1336 220.181Z" fill="url(#paint2_linear)"/>
<path d="M23.2582 258.746L15.1152 220.193L277.048 213.483L290.841 270.68L23.2582 258.746Z" fill="url(#paint3_linear)"/>
<path d="M68.3369 177.025L277.063 213.468L15.1306 220.178L68.3369 177.025Z" fill="#B653BE"/>
<path d="M324.752 162.527L141.014 76.3296L164.419 26.3867L324.752 162.527Z" fill="url(#paint4_linear)"/>
<path d="M305.167 185.534L324.748 162.511L141.011 76.3138L305.167 185.534Z" fill="#B653BE"/>
<path d="M1933.05 222.506L1979.09 239.159L2046.56 161.43L1937.18 195.228L1933.05 222.506Z" fill="url(#paint5_linear)"/>
<path d="M2035.2 140.864L1937.16 195.268L2046.55 161.47L2035.2 140.864Z" fill="#D873D1"/>
<path d="M2014.88 246.58L1940.45 464.705L2034.63 266.813L2014.88 246.58Z" fill="#D873D1"/>
<path d="M1890.03 440.165L1940.4 464.721L2014.82 246.596L1890.03 440.165Z" fill="url(#paint6_linear)"/>
<path d="M1729.72 126.824L1681.52 135.421L1661.95 236.473L1739.79 152.509L1729.72 126.824Z" fill="url(#paint7_linear)"/>
<path d="M1682.08 248.601L1739.78 152.469L1661.94 236.433L1682.08 248.601Z" fill="#D873D1"/>
<defs>
<linearGradient id="paint0_linear" x1="513.601" y1="491.592" x2="549.42" y2="491.592" gradientUnits="userSpaceOnUse">
<stop stop-color="#A7429C"/>
<stop offset="1" stop-color="#5F357D"/>
</linearGradient>
<linearGradient id="paint1_linear" x1="463.161" y1="451.58" x2="570.301" y2="451.58" gradientUnits="userSpaceOnUse">
<stop stop-color="#A7429C"/>
<stop offset="1" stop-color="#5F357D"/>
</linearGradient>
<linearGradient id="paint2_linear" x1="41.5993" y1="196.027" x2="15.7859" y2="220.859" gradientUnits="userSpaceOnUse">
<stop stop-color="#A7429C"/>
<stop offset="1" stop-color="#5F357D"/>
</linearGradient>
<linearGradient id="paint3_linear" x1="105.689" y1="189.894" x2="28.4767" y2="264.171" gradientUnits="userSpaceOnUse">
<stop stop-color="#A7429C"/>
<stop offset="1" stop-color="#5F357D"/>
</linearGradient>
<linearGradient id="paint4_linear" x1="239.233" y1="149.85" x2="318.645" y2="133.272" gradientUnits="userSpaceOnUse">
<stop stop-color="#A7429C"/>
<stop offset="1" stop-color="#5F357D"/>
</linearGradient>
<linearGradient id="paint5_linear" x1="1995.45" y1="164.979" x2="1948.64" y2="152.437" gradientUnits="userSpaceOnUse">
<stop stop-color="#A7429C"/>
<stop offset="1" stop-color="#5F357D"/>
</linearGradient>
<linearGradient id="paint6_linear" x1="2009.93" y1="346.999" x2="1985.16" y2="254.545" gradientUnits="userSpaceOnUse">
<stop stop-color="#A7429C"/>
<stop offset="1" stop-color="#5F357D"/>
</linearGradient>
<linearGradient id="paint7_linear" x1="1704.45" y1="207.841" x2="1751.25" y2="195.299" gradientUnits="userSpaceOnUse">
<stop stop-color="#A7429C"/>
<stop offset="1" stop-color="#5F357D"/>
</linearGradient>
</defs>
</svg>
