<svg width="1867" height="453" viewBox="0 0 1867 453" fill="none" xmlns="http://www.w3.org/2000/svg">
<path d="M168.881 136.999L170.415 151.619L210.721 167.809L168.881 136.999Z" fill="#B653BE"/>
<path d="M0 315.041L170.467 151.619L168.933 136.999L0 315.041Z" fill="#D873D1"/>
<path d="M170.467 151.612L210.773 167.802L71.3674 382.65L4.36165 378.924L0 315.034L170.467 151.612Z" fill="url(#paint0_linear)"/>
<path d="M338.402 139.095L366.913 340.034L312.308 347.805L338.402 139.095Z" fill="url(#paint1_linear)"/>
<path d="M368.378 142.88L338.391 139.106L366.901 340.046L368.378 142.88Z" fill="#B653BE"/>
<path d="M138.053 356.505L184.09 373.158L251.565 295.429L142.176 329.227L138.053 356.505Z" fill="url(#paint2_linear)"/>
<path d="M240.198 274.863L142.165 329.267L251.554 295.469L240.198 274.863Z" fill="#D873D1"/>
<path d="M196.115 16.2071L190.415 64.83L281.498 112.772L223.613 13.9912L196.115 16.2071Z" fill="url(#paint3_linear)"/>
<path d="M298.926 97.0085L223.572 13.99L281.457 112.77L298.926 97.0085Z" fill="#D873D1"/>
<path d="M1480.02 275.778L1601.8 452.656L1605.18 446.746L1480.02 275.778Z" fill="#D873D1"/>
<path d="M1673.42 452.534L1601.78 452.656L1605.16 446.746L1673.42 452.534Z" fill="#B653BE"/>
<path d="M1694.3 419.108L1673.44 452.538L1480.02 275.782L1509.74 224.999L1694.3 419.108Z" fill="url(#paint4_linear)"/>
<path d="M1605.16 446.75L1480 275.782L1673.42 452.538L1605.16 446.75Z" fill="#B653BE"/>
<path d="M1720.11 297.18L1711.47 285.286L1668.47 291.418L1720.11 297.18Z" fill="#B653BE"/>
<path d="M1777.34 58.5505L1711.42 285.311L1720.06 297.206L1777.34 58.5505Z" fill="#D873D1"/>
<path d="M1711.42 285.317L1668.42 291.449L1681.73 35.6832L1741.62 5.40712L1777.34 58.5564L1711.42 285.317Z" fill="url(#paint5_linear)"/>
<defs>
<linearGradient id="paint0_linear" x1="105.386" y1="193.199" x2="0" y2="193.199" gradientUnits="userSpaceOnUse">
<stop stop-color="#A7429C"/>
<stop offset="1" stop-color="#5F357D"/>
</linearGradient>
<linearGradient id="paint1_linear" x1="374.632" y1="217.59" x2="317.27" y2="160.227" gradientUnits="userSpaceOnUse">
<stop stop-color="#A7429C"/>
<stop offset="1" stop-color="#5F357D"/>
</linearGradient>
<linearGradient id="paint2_linear" x1="200.447" y1="298.978" x2="153.641" y2="286.436" gradientUnits="userSpaceOnUse">
<stop stop-color="#A7429C"/>
<stop offset="1" stop-color="#5F357D"/>
</linearGradient>
<linearGradient id="paint3_linear" x1="266.37" y1="63.8154" x2="267.892" y2="15.3822" gradientUnits="userSpaceOnUse">
<stop stop-color="#A7429C"/>
<stop offset="1" stop-color="#5F357D"/>
</linearGradient>
<linearGradient id="paint4_linear" x1="1587.16" y1="411.581" x2="1694.3" y2="411.581" gradientUnits="userSpaceOnUse">
<stop stop-color="#A7429C"/>
<stop offset="1" stop-color="#5F357D"/>
</linearGradient>
<linearGradient id="paint5_linear" x1="1746.99" y1="216.762" x2="1838.26" y2="164.069" gradientUnits="userSpaceOnUse">
<stop stop-color="#A7429C"/>
<stop offset="1" stop-color="#5F357D"/>
</linearGradient>
</defs>
</svg>
