<svg width="2045" height="481" viewBox="0 0 2045 481" fill="none" xmlns="http://www.w3.org/2000/svg">
<path d="M215.516 462.161L85.2074 306.567L127.478 271.137L215.516 462.161Z" fill="url(#paint0_linear)"/>
<path d="M188.06 474.773L215.519 462.145L85.211 306.551L188.06 474.773Z" fill="#B653BE"/>
<path d="M444.321 90.699L233.877 184.672L442.942 118.936L444.321 90.699Z" fill="#D873D1"/>
<path d="M217.528 131.034L233.826 184.641L444.271 90.6672L217.528 131.034Z" fill="url(#paint1_linear)"/>
<path d="M50.5305 118.75L22.5299 158.908L80.1459 244.201L75.8118 129.791L50.5305 118.75Z" fill="url(#paint2_linear)"/>
<path d="M102.954 238.544L75.7761 129.771L80.1102 244.18L102.954 238.544Z" fill="#D873D1"/>
<path d="M2044.43 272.697L1853 144.35L2019.78 286.532L2044.43 272.697Z" fill="#D873D1"/>
<path d="M1889.75 102L1853 144.29L2044.43 272.637L1889.75 102Z" fill="url(#paint3_linear)"/>
<path d="M1604.85 167.622L1601.38 207.345L1773.79 342.039L1641.7 164.415L1604.85 167.622Z" fill="url(#paint4_linear)"/>
<path d="M1789.26 321.273L1773.78 342.038L1641.69 164.414L1789.26 321.273Z" fill="#D873D1"/>
<path d="M1985.83 396.039L1966.87 350.904L1863.99 353.979L1962.98 411.497L1985.83 396.039Z" fill="url(#paint5_linear)"/>
<path d="M1856.57 376.277L1963.02 411.478L1864.03 353.96L1856.57 376.277Z" fill="#D873D1"/>
<defs>
<linearGradient id="paint0_linear" x1="143.302" y1="414.629" x2="222.304" y2="433.056" gradientUnits="userSpaceOnUse">
<stop stop-color="#A7429C"/>
<stop offset="1" stop-color="#5F357D"/>
</linearGradient>
<linearGradient id="paint1_linear" x1="367.393" y1="155.432" x2="418.251" y2="74.3471" gradientUnits="userSpaceOnUse">
<stop stop-color="#A7429C"/>
<stop offset="1" stop-color="#5F357D"/>
</linearGradient>
<linearGradient id="paint2_linear" x1="89.9484" y1="193.907" x2="114.177" y2="151.942" gradientUnits="userSpaceOnUse">
<stop stop-color="#A7429C"/>
<stop offset="1" stop-color="#5F357D"/>
</linearGradient>
<linearGradient id="paint3_linear" x1="1948.72" y1="241.922" x2="2044.43" y2="241.922" gradientUnits="userSpaceOnUse">
<stop stop-color="#A7429C"/>
<stop offset="1" stop-color="#5F357D"/>
</linearGradient>
<linearGradient id="paint4_linear" x1="1743.42" y1="253.597" x2="1744.34" y2="165.481" gradientUnits="userSpaceOnUse">
<stop stop-color="#A7429C"/>
<stop offset="1" stop-color="#5F357D"/>
</linearGradient>
<linearGradient id="paint5_linear" x1="1901.25" y1="389.157" x2="1923.75" y2="432.071" gradientUnits="userSpaceOnUse">
<stop stop-color="#A7429C"/>
<stop offset="1" stop-color="#5F357D"/>
</linearGradient>
</defs>
</svg>
