<svg width="10" height="16" viewBox="0 0 10 16" fill="none" xmlns="http://www.w3.org/2000/svg">
<path d="M6.62413 1.77783H5.99945H1.99982H1.37515C0.616671 1.77783 0 2.5087 0 3.40786V14.3708C0 15.2692 0.616671 16.0001 1.37515 16.0001H6.62485C7.38333 16.0001 8 15.2692 8 14.3708V3.40786C7.99927 2.5087 7.3826 1.77783 6.62413 1.77783Z" fill="#CE4E5B"/>
<path opacity="0.4" d="M8.40196 0H7.77729H3.77765H3.15298C2.3945 0 1.77783 0.730864 1.77783 1.63003V12.593C1.77783 13.4914 2.3945 14.2222 3.15298 14.2222H8.40268C9.16116 14.2222 9.77783 13.4914 9.77783 12.593V1.63003C9.7771 0.730864 9.16043 0 8.40196 0Z" fill="#DB719A"/>
</svg>
